# xmcd CD database file
#
# Track frame offsets:
#	150
#	22970
#	42849
#	67978
#	91964
#	116876
#	139904
#	163132
#	190965
#	211232
#
# Disc length: 3118 seconds
#
# Revision: 0
# Processed by: cddbd v1.5PL3 Copyright (c) Steve Scherf et al.
# Submitted via: CDex 1.51
#
DISCID=8a0c2c0a
DTITLE=Poetry Of The Lake - Lister To The Lake
DYEAR=2004
DGENRE=New Age
TTITLE0=The Reflection Of Something In Water
TTITLE1=Listen To The Mountain Fog
TTITLE2=Autumn
TTITLE3=Shore Lake of Coppenhaq
TTITLE4=WonDerLamb
TTITLE5=The GodlWonderlLand
TTITLE6=An Impression
TTITLE7=Lister To The Lake
TTITLE8=Snow Winter
TTITLE9=Listening To OriolesIn The Willows
EXTD=YEAR: 2004
EXTT0=
EXTT1=
EXTT2=
EXTT3=
EXTT4=
EXTT5=
EXTT6=
EXTT7=
EXTT8=
EXTT9=
PLAYORDER=
